<!DOCTYPE svg PUBLIC "-//W3C//DTD SVG 1.1//EN" "http://www.w3.org/Graphics/SVG/1.1/DTD/svg11.dtd">
<svg xmlns="http://www.w3.org/2000/svg" xmlns:xlink="http://www.w3.org/1999/xlink" width="225px" height="68px" version="1.1" content="%3CmxGraphModel%20dx%3D%22794%22%20dy%3D%22530%22%20grid%3D%221%22%20gridSize%3D%2210%22%20guides%3D%221%22%20tooltips%3D%221%22%20connect%3D%221%22%20arrows%3D%221%22%20fold%3D%221%22%20page%3D%221%22%20pageScale%3D%221%22%20pageWidth%3D%22826%22%20pageHeight%3D%221169%22%20background%3D%22%23ffffff%22%20math%3D%220%22%20shadow%3D%220%22%3E%3Croot%3E%3CmxCell%20id%3D%220%22%2F%3E%3CmxCell%20id%3D%221%22%20parent%3D%220%22%2F%3E%3CmxCell%20id%3D%222%22%20value%3D%22%22%20style%3D%22verticalLabelPosition%3Dbottom%3Bhtml%3D1%3BverticalAlign%3Dtop%3BstrokeColor%3Dnone%3BfillColor%3D%2300BEF2%3Bshape%3Dmxgraph.azure.cloud%3BfontColor%3D%231A1A1A%3B%22%20vertex%3D%221%22%20parent%3D%221%22%3E%3CmxGeometry%20x%3D%22230%22%20y%3D%22130%22%20width%3D%2292%22%20height%3D%2260%22%20as%3D%22geometry%22%2F%3E%3C%2FmxCell%3E%3CmxCell%20id%3D%223%22%20value%3D%22%22%20style%3D%22verticalLabelPosition%3Dbottom%3Bhtml%3D1%3BverticalAlign%3Dtop%3BstrokeColor%3Dnone%3BfillColor%3D%2300BEF2%3Bshape%3Dmxgraph.azure.sql_reporting%3BfontColor%3D%231A1A1A%3B%22%20vertex%3D%221%22%20parent%3D%221%22%3E%3CmxGeometry%20x%3D%22400%22%20y%3D%22130%22%20width%3D%2252%22%20height%3D%2265%22%20as%3D%22geometry%22%2F%3E%3C%2FmxCell%3E%3CmxCell%20id%3D%224%22%20value%3D%22%22%20style%3D%22endArrow%3Dclassic%3Bhtml%3D1%3BfontColor%3D%231A1A1A%3BentryX%3D-0.019%3BentryY%3D0.554%3BentryPerimeter%3D0%3BstrokeColor%3D%2300BEF2%3BstrokeWidth%3D6%3B%22%20edge%3D%221%22%20parent%3D%221%22%3E%3CmxGeometry%20x%3D%22324%22%20y%3D%22166%22%20width%3D%2250%22%20height%3D%2250%22%20as%3D%22geometry%22%3E%3CmxPoint%20x%3D%22324%22%20y%3D%22166%22%20as%3D%22sourcePoint%22%2F%3E%3CmxPoint%20x%3D%22393%22%20y%3D%22166%22%20as%3D%22targetPoint%22%2F%3E%3C%2FmxGeometry%3E%3C%2FmxCell%3E%3C%2Froot%3E%3C%2FmxGraphModel%3E"><defs/><g transform="translate(0.5,0.5)"><path d="M 19.38 60.85 C 12.1 60.03 5.92 55.17 3.47 48.33 C 1.02 41.49 2.73 33.86 7.87 28.69 C 13.01 23.51 20.69 21.69 27.64 24 C 32.11 9.31 47.77 1 62.61 5.43 C 77.44 9.86 85.84 25.37 81.36 40.06 C 86.85 39.86 91.57 43.83 92.29 49.21 C 93 54.6 89.46 59.63 84.12 60.85 C 84.14 60.77 19.27 61 19.27 61 Z" fill="#00bef2" stroke="none" pointer-events="none"/><path d="M 171 10.08 C 171.95 4.96 182.71 1 195.66 1 C 208.6 1 219.36 4.96 220.31 10.08 L 220.31 32.91 L 211.71 25.13 L 188.27 25.13 L 188.27 66 C 178.6 64.8 171.75 61.38 171 57.37 Z M 176.24 9.89 C 176.24 12.85 184.45 15.24 194.58 15.24 C 204.71 15.24 212.92 12.85 212.92 9.89 C 212.92 6.93 204.71 4.53 194.58 4.53 C 184.45 4.53 176.24 6.93 176.24 9.89 Z M 190.82 27.61 L 209.7 27.61 L 223 38.4 L 223 66 L 190.82 66 Z M 193.24 29.97 L 193.24 63.71 L 220.58 63.71 L 220.58 39.58 L 210.64 39.58 L 210.64 30.03 Z M 197.67 33.95 L 204.99 33.95 L 204.99 36.31 L 197.67 36.31 Z M 204.99 38.79 L 204.99 41.08 L 197.67 41.08 L 197.67 38.79 Z M 197.67 43.57 L 204.99 43.57 L 204.99 45.92 L 197.67 45.92 Z M 204.99 48.34 L 204.99 50.76 L 197.67 50.76 L 197.67 48.34 Z M 197.67 53.25 L 204.99 53.25 L 204.99 55.6 L 197.67 55.6 Z M 207.41 43.63 L 214.94 43.63 L 214.94 45.99 L 207.41 45.99 Z M 214.94 48.34 L 214.94 50.76 L 207.41 50.76 L 207.41 48.34 Z M 214.94 53.25 L 214.94 55.6 L 207.41 55.6 L 207.41 53.25 Z" fill="#00bef2" stroke="none" pointer-events="none"/><path d="M 95 37 L 148.29 37" fill="none" stroke="#00bef2" stroke-width="6" stroke-miterlimit="10" pointer-events="none"/><path d="M 157.29 37 L 145.29 43 L 148.29 37 L 145.29 31 Z" fill="#00bef2" stroke="#00bef2" stroke-width="6" stroke-miterlimit="10" pointer-events="none"/></g></svg>