<!DOCTYPE svg PUBLIC "-//W3C//DTD SVG 1.1//EN" "http://www.w3.org/Graphics/SVG/1.1/DTD/svg11.dtd">
<svg xmlns="http://www.w3.org/2000/svg" xmlns:xlink="http://www.w3.org/1999/xlink" width="55px" height="68px" version="1.1" content="%3CmxGraphModel%20dx%3D%22794%22%20dy%3D%22486%22%20grid%3D%221%22%20gridSize%3D%2210%22%20guides%3D%221%22%20tooltips%3D%221%22%20connect%3D%221%22%20arrows%3D%221%22%20fold%3D%221%22%20page%3D%221%22%20pageScale%3D%221%22%20pageWidth%3D%22826%22%20pageHeight%3D%221169%22%20background%3D%22%23ffffff%22%20math%3D%220%22%20shadow%3D%220%22%3E%3Croot%3E%3CmxCell%20id%3D%220%22%2F%3E%3CmxCell%20id%3D%221%22%20parent%3D%220%22%2F%3E%3CmxCell%20id%3D%222%22%20value%3D%22%22%20style%3D%22verticalLabelPosition%3Dbottom%3Bhtml%3D1%3BverticalAlign%3Dtop%3BstrokeColor%3Dnone%3BfillColor%3D%2300BEF2%3Bshape%3Dmxgraph.azure.sql_reporting%3BfontColor%3D%231A1A1A%3B%22%20vertex%3D%221%22%20parent%3D%221%22%3E%3CmxGeometry%20x%3D%22400%22%20y%3D%22130%22%20width%3D%2252%22%20height%3D%2265%22%20as%3D%22geometry%22%2F%3E%3C%2FmxCell%3E%3C%2Froot%3E%3C%2FmxGraphModel%3E"><defs/><g transform="translate(0.5,0.5)"><path d="M 1 10.08 C 1.95 4.96 12.71 1 25.66 1 C 38.6 1 49.36 4.96 50.31 10.08 L 50.31 32.91 L 41.71 25.13 L 18.27 25.13 L 18.27 66 C 8.6 64.8 1.75 61.38 1 57.37 Z M 6.24 9.89 C 6.24 12.85 14.45 15.24 24.58 15.24 C 34.71 15.24 42.92 12.85 42.92 9.89 C 42.92 6.93 34.71 4.53 24.58 4.53 C 14.45 4.53 6.24 6.93 6.24 9.89 Z M 20.82 27.61 L 39.7 27.61 L 53 38.4 L 53 66 L 20.82 66 Z M 23.24 29.97 L 23.24 63.71 L 50.58 63.71 L 50.58 39.58 L 40.64 39.58 L 40.64 30.03 Z M 27.67 33.95 L 34.99 33.95 L 34.99 36.31 L 27.67 36.31 Z M 34.99 38.79 L 34.99 41.08 L 27.67 41.08 L 27.67 38.79 Z M 27.67 43.57 L 34.99 43.57 L 34.99 45.92 L 27.67 45.92 Z M 34.99 48.34 L 34.99 50.76 L 27.67 50.76 L 27.67 48.34 Z M 27.67 53.25 L 34.99 53.25 L 34.99 55.6 L 27.67 55.6 Z M 37.41 43.63 L 44.94 43.63 L 44.94 45.99 L 37.41 45.99 Z M 44.94 48.34 L 44.94 50.76 L 37.41 50.76 L 37.41 48.34 Z M 44.94 53.25 L 44.94 55.6 L 37.41 55.6 L 37.41 53.25 Z" fill="#00bef2" stroke="none" pointer-events="none"/></g></svg>