<!DOCTYPE svg PUBLIC "-//W3C//DTD SVG 1.1//EN" "http://www.w3.org/Graphics/SVG/1.1/DTD/svg11.dtd">
<svg xmlns="http://www.w3.org/2000/svg" xmlns:xlink="http://www.w3.org/1999/xlink" width="113px" height="69px" version="1.1" content="%3CmxGraphModel%20dx%3D%22794%22%20dy%3D%22486%22%20grid%3D%221%22%20gridSize%3D%2210%22%20guides%3D%221%22%20tooltips%3D%221%22%20connect%3D%221%22%20arrows%3D%221%22%20fold%3D%221%22%20page%3D%221%22%20pageScale%3D%221%22%20pageWidth%3D%22826%22%20pageHeight%3D%221169%22%20background%3D%22%23ffffff%22%20math%3D%220%22%20shadow%3D%220%22%3E%3Croot%3E%3CmxCell%20id%3D%220%22%2F%3E%3CmxCell%20id%3D%221%22%20parent%3D%220%22%2F%3E%3CmxCell%20id%3D%222%22%20value%3D%22%22%20style%3D%22verticalLabelPosition%3Dbottom%3Bhtml%3D1%3BverticalAlign%3Dtop%3BstrokeColor%3Dnone%3BfillColor%3D%2300BEF2%3Bshape%3Dmxgraph.azure.express_route%3BfontColor%3D%2300BEF2%3B%22%20vertex%3D%221%22%20parent%3D%221%22%3E%3CmxGeometry%20x%3D%2270%22%20y%3D%22129%22%20width%3D%22110%22%20height%3D%2266%22%20as%3D%22geometry%22%2F%3E%3C%2FmxCell%3E%3C%2Froot%3E%3C%2FmxGraphModel%3E"><defs/><g transform="translate(0.5,0.5)"><path d="M 45.17 18.82 C 42.8 13.81 44.23 7.86 48.64 4.43 C 53.04 1 59.27 1 63.68 4.43 C 68.08 7.86 69.52 13.81 67.14 18.82 L 92.69 43.95 C 97.2 41.84 102.58 42.67 106.21 46.05 C 109.85 49.43 111 54.66 109.12 59.22 C 107.23 63.77 102.69 66.72 97.69 66.64 C 92.69 66.56 88.25 63.47 86.52 58.86 L 25.58 58.86 C 23.93 63.54 19.5 66.73 14.46 66.87 C 9.41 67 4.81 64.05 2.91 59.46 C 1 54.87 2.18 49.59 5.87 46.22 C 9.57 42.84 15 42.06 19.52 44.27 Z M 60.11 13.61 C 60.11 11.49 58.36 9.77 56.21 9.77 C 54.06 9.77 52.31 11.49 52.31 13.61 C 52.31 15.72 54.06 17.44 56.21 17.44 C 58.36 17.44 60.11 15.72 60.11 13.61 Z M 97.88 50.76 C 95.61 50.76 93.77 52.57 93.77 54.81 C 93.77 57.04 95.61 58.86 97.88 58.86 C 100.15 58.86 101.99 57.04 101.99 54.81 C 101.99 52.57 100.15 50.76 97.88 50.76 Z M 14.43 58.86 C 16.7 58.86 18.55 57.04 18.55 54.81 C 18.55 52.57 16.7 50.76 14.43 50.76 C 12.16 50.76 10.32 52.57 10.32 54.81 C 10.32 57.04 12.16 58.86 14.43 58.86 Z M 25.91 51.08 L 26.1 51 L 86.57 50.87 L 86.98 49.67 L 61.41 24.47 C 58.17 26.21 54.25 26.21 51.02 24.47 L 25.26 49.81 Z" fill="#00bef2" stroke="none" pointer-events="none"/></g></svg>